M48
; DRILL file {KiCad 8.0.7} date 2025-11-10T19:03:14-0500
; FORMAT={-:-/ absolute / inch / decimal}
; #@! TF.CreationDate,2025-11-10T19:03:14-05:00
; #@! TF.GenerationSoftware,Kicad,Pcbnew,8.0.7
; #@! TF.FileFunction,Plated,1,2,PTH
FMAT,2
INCH
; #@! TA.AperFunction,Plated,PTH,ViaDrill
T1C0.0118
; #@! TA.AperFunction,Plated,PTH,ComponentDrill
T2C0.0394
%
G90
G05
T1
X2.75Y-4.2
X2.9118Y-3.7122
X3.0457Y-4.7949
X3.1323Y-5.0705
X3.1953Y-4.472
X3.1996Y-3.4953
X4.2307Y-4.5154
X4.8374Y-3.4953
T2
X2.55Y-3.35
X2.55Y-3.45
X2.55Y-3.55
X2.55Y-3.65
X2.55Y-3.75
X2.55Y-3.85
X2.55Y-3.95
X2.55Y-4.05
X2.55Y-4.15
X2.55Y-4.25
X2.55Y-4.35
X2.55Y-4.45
X2.55Y-4.55
X2.55Y-4.65
X2.55Y-4.75
X2.55Y-4.85
X2.55Y-4.95
X2.55Y-5.05
X2.55Y-5.15
X2.65Y-3.35
X2.65Y-3.45
X2.65Y-3.55
X2.65Y-3.65
X2.65Y-3.75
X2.65Y-3.85
X2.65Y-3.95
X2.65Y-4.05
X2.65Y-4.15
X2.65Y-4.25
X2.65Y-4.35
X2.65Y-4.45
X2.65Y-4.55
X2.65Y-4.65
X2.65Y-4.75
X2.65Y-4.85
X2.65Y-4.95
X2.65Y-5.05
X2.65Y-5.15
X2.9Y-3.8
X2.9Y-3.9
X2.9Y-4.0
X2.9Y-4.1
X2.9Y-4.2
X2.9Y-4.3
X2.9Y-4.4
X2.9Y-4.5
X2.9Y-4.6
X2.9Y-4.7
X3.0Y-3.8
X3.0Y-3.9
X3.0Y-4.0
X3.0Y-4.1
X3.0Y-4.2
X3.0Y-4.3
X3.0Y-4.4
X3.0Y-4.5
X3.0Y-4.6
X3.0Y-4.7
X4.6Y-3.8
X4.6Y-3.9
X4.6Y-4.0
X4.6Y-4.1
X4.6Y-4.2
X4.6Y-4.3
X4.6Y-4.4
X4.6Y-4.5
X4.6Y-4.6
X4.6Y-4.7
X4.7Y-3.8
X4.7Y-3.9
X4.7Y-4.0
X4.7Y-4.1
X4.7Y-4.2
X4.7Y-4.3
X4.7Y-4.4
X4.7Y-4.5
X4.7Y-4.6
X4.7Y-4.7
X4.95Y-3.35
X4.95Y-3.45
X4.95Y-3.55
X4.95Y-3.65
X4.95Y-3.75
X4.95Y-3.85
X4.95Y-3.95
X4.95Y-4.05
X4.95Y-4.15
X4.95Y-4.25
X4.95Y-4.35
X4.95Y-4.45
X4.95Y-4.55
X4.95Y-4.65
X4.95Y-4.75
X4.95Y-4.85
X4.95Y-4.95
X4.95Y-5.05
X4.95Y-5.15
X5.05Y-3.35
X5.05Y-3.45
X5.05Y-3.55
X5.05Y-3.65
X5.05Y-3.75
X5.05Y-3.85
X5.05Y-3.95
X5.05Y-4.05
X5.05Y-4.15
X5.05Y-4.25
X5.05Y-4.35
X5.05Y-4.45
X5.05Y-4.55
X5.05Y-4.65
X5.05Y-4.75
X5.05Y-4.85
X5.05Y-4.95
X5.05Y-5.05
X5.05Y-5.15
M30
