%TF.GenerationSoftware,KiCad,Pcbnew,8.0.7*%
%TF.CreationDate,2025-11-10T19:03:10-05:00*%
%TF.ProjectId,AdapterBoard_McDap,41646170-7465-4724-926f-6172645f4d63,rev?*%
%TF.SameCoordinates,Original*%
%TF.FileFunction,Copper,L1,Top*%
%TF.FilePolarity,Positive*%
%FSLAX46Y46*%
G04 Gerber Fmt 4.6, Leading zero omitted, Abs format (unit mm)*
G04 Created by KiCad (PCBNEW 8.0.7) date 2025-11-10 19:03:10*
%MOMM*%
%LPD*%
G01*
G04 APERTURE LIST*
%TA.AperFunction,ComponentPad*%
%ADD10R,1.700000X1.700000*%
%TD*%
%TA.AperFunction,ComponentPad*%
%ADD11O,1.700000X1.700000*%
%TD*%
%TA.AperFunction,ViaPad*%
%ADD12C,0.600000*%
%TD*%
%TA.AperFunction,Conductor*%
%ADD13C,0.200000*%
%TD*%
%TA.AperFunction,Conductor*%
%ADD14C,0.500000*%
%TD*%
G04 APERTURE END LIST*
D10*
%TO.P,J2,1,Pin_1*%
%TO.N,PC_9*%
X67310000Y-130810000D03*
D11*
%TO.P,J2,2,Pin_2*%
%TO.N,PC_8*%
X64770000Y-130810000D03*
%TO.P,J2,3,Pin_3*%
%TO.N,PB_8*%
X67310000Y-128270000D03*
%TO.P,J2,4,Pin_4*%
%TO.N,PC_6*%
X64770000Y-128270000D03*
%TO.P,J2,5,Pin_5*%
%TO.N,PB_9*%
X67310000Y-125730000D03*
%TO.P,J2,6,Pin_6*%
%TO.N,PA24*%
X64770000Y-125730000D03*
%TO.P,J2,7,Pin_7*%
%TO.N,AVDD*%
X67310000Y-123190000D03*
%TO.P,J2,8,Pin_8*%
%TO.N,U5V*%
X64770000Y-123190000D03*
%TO.P,J2,9,Pin_9*%
%TO.N,GND*%
X67310000Y-120650000D03*
%TO.P,J2,10,Pin_10*%
%TO.N,PD_6*%
X64770000Y-120650000D03*
%TO.P,J2,11,Pin_11*%
%TO.N,PA_5*%
X67310000Y-118110000D03*
%TO.P,J2,12,Pin_12*%
%TO.N,PA_12*%
X64770000Y-118110000D03*
%TO.P,J2,13,Pin_13*%
%TO.N,PA28*%
X67310000Y-115570000D03*
%TO.P,J2,14,Pin_14*%
%TO.N,PA_11*%
X64770000Y-115570000D03*
%TO.P,J2,15,Pin_15*%
%TO.N,PA31*%
X67310000Y-113030000D03*
%TO.P,J2,16,Pin_16*%
%TO.N,PB9*%
X64770000Y-113030000D03*
%TO.P,J2,17,Pin_17*%
%TO.N,PB_0*%
X67310000Y-110490000D03*
%TO.P,J2,18,Pin_18*%
%TO.N,PB15*%
X64770000Y-110490000D03*
%TO.P,J2,19,Pin_19*%
%TO.N,PC_7*%
X67310000Y-107950000D03*
%TO.P,J2,20,Pin_20*%
%TO.N,GND*%
X64770000Y-107950000D03*
%TO.P,J2,21,Pin_21*%
%TO.N,PA_9*%
X67310000Y-105410000D03*
%TO.P,J2,22,Pin_22*%
%TO.N,PB_2*%
X64770000Y-105410000D03*
%TO.P,J2,23,Pin_23*%
%TO.N,PA_8*%
X67310000Y-102870000D03*
%TO.P,J2,24,Pin_24*%
%TO.N,PB16*%
X64770000Y-102870000D03*
%TO.P,J2,25,Pin_25*%
%TO.N,PB_14*%
X67310000Y-100330000D03*
%TO.P,J2,26,Pin_26*%
%TO.N,PB8*%
X64770000Y-100330000D03*
%TO.P,J2,27,Pin_27*%
%TO.N,PB_4*%
X67310000Y-97790000D03*
%TO.P,J2,28,Pin_28*%
%TO.N,PB_10*%
X64770000Y-97790000D03*
%TO.P,J2,29,Pin_29*%
%TO.N,PB_5*%
X67310000Y-95250000D03*
%TO.P,J2,30,Pin_30*%
%TO.N,PB_13*%
X64770000Y-95250000D03*
%TO.P,J2,31,Pin_31*%
%TO.N,PB_3*%
X67310000Y-92710000D03*
%TO.P,J2,32,Pin_32*%
%TO.N,AGND*%
X64770000Y-92710000D03*
%TO.P,J2,33,Pin_33*%
%TO.N,PA_10*%
X67310000Y-90170000D03*
%TO.P,J2,34,Pin_34*%
%TO.N,PA_2*%
X64770000Y-90170000D03*
%TO.P,J2,35,Pin_35*%
%TO.N,PA13*%
X67310000Y-87630000D03*
%TO.P,J2,36,Pin_36*%
%TO.N,PD_8*%
X64770000Y-87630000D03*
%TO.P,J2,37,Pin_37*%
%TO.N,PB4*%
X67310000Y-85090000D03*
%TO.P,J2,38,Pin_38*%
%TO.N,PD_9*%
X64770000Y-85090000D03*
%TD*%
D10*
%TO.P,J1,1,Pin_1*%
%TO.N,PC_10*%
X128270000Y-130810000D03*
D11*
%TO.P,J1,2,Pin_2*%
%TO.N,PC_11*%
X125730000Y-130810000D03*
%TO.P,J1,3,Pin_3*%
%TO.N,PC_12*%
X128270000Y-128270000D03*
%TO.P,J1,4,Pin_4*%
%TO.N,PB13*%
X125730000Y-128270000D03*
%TO.P,J1,5,Pin_5*%
%TO.N,VDD*%
X128270000Y-125730000D03*
%TO.P,J1,6,Pin_6*%
%TO.N,+5V*%
X125730000Y-125730000D03*
%TO.P,J1,7,Pin_7*%
%TO.N,PA9*%
X128270000Y-123190000D03*
%TO.P,J1,8,Pin_8*%
%TO.N,GND*%
X125730000Y-123190000D03*
%TO.P,J1,9,Pin_9*%
%TO.N,PB12*%
X128270000Y-120650000D03*
%TO.P,J1,10,Pin_10*%
%TO.N,PA25*%
X125730000Y-120650000D03*
%TO.P,J1,11,Pin_11*%
%TO.N,PD_3*%
X128270000Y-118110000D03*
%TO.P,J1,12,Pin_12*%
%TO.N,IOREF*%
X125730000Y-118110000D03*
%TO.P,J1,13,Pin_13*%
%TO.N,PA_13*%
X128270000Y-115570000D03*
%TO.P,J1,14,Pin_14*%
%TO.N,RESET*%
X125730000Y-115570000D03*
%TO.P,J1,15,Pin_15*%
%TO.N,PD_4*%
X128270000Y-113030000D03*
%TO.P,J1,16,Pin_16*%
%TO.N,3V3*%
X125730000Y-113030000D03*
%TO.P,J1,17,Pin_17*%
%TO.N,PA8*%
X128270000Y-110490000D03*
%TO.P,J1,18,Pin_18*%
%TO.N,5V*%
X125730000Y-110490000D03*
%TO.P,J1,19,Pin_19*%
%TO.N,GND*%
X128270000Y-107950000D03*
%TO.P,J1,20,Pin_20*%
X125730000Y-107950000D03*
%TO.P,J1,21,Pin_21*%
%TO.N,PB3*%
X128270000Y-105410000D03*
%TO.P,J1,22,Pin_22*%
%TO.N,GND*%
X125730000Y-105410000D03*
%TO.P,J1,23,Pin_23*%
%TO.N,PC_13*%
X128270000Y-102870000D03*
%TO.P,J1,24,Pin_24*%
%TO.N,VIN*%
X125730000Y-102870000D03*
%TO.P,J1,25,Pin_25*%
%TO.N,PC_14*%
X128270000Y-100330000D03*
%TO.P,J1,26,Pin_26*%
%TO.N,PD_5*%
X125730000Y-100330000D03*
%TO.P,J1,27,Pin_27*%
%TO.N,PC_15*%
X128270000Y-97790000D03*
%TO.P,J1,28,Pin_28*%
%TO.N,PA_0*%
X125730000Y-97790000D03*
%TO.P,J1,29,Pin_29*%
%TO.N,PF_0*%
X128270000Y-95250000D03*
%TO.P,J1,30,Pin_30*%
%TO.N,PA26*%
X125730000Y-95250000D03*
%TO.P,J1,31,Pin_31*%
%TO.N,PF_1*%
X128270000Y-92710000D03*
%TO.P,J1,32,Pin_32*%
%TO.N,PA_4*%
X125730000Y-92710000D03*
%TO.P,J1,33,Pin_33*%
%TO.N,VBAT*%
X128270000Y-90170000D03*
%TO.P,J1,34,Pin_34*%
%TO.N,PB_1*%
X125730000Y-90170000D03*
%TO.P,J1,35,Pin_35*%
%TO.N,PA12*%
X128270000Y-87630000D03*
%TO.P,J1,36,Pin_36*%
%TO.N,PB_11*%
X125730000Y-87630000D03*
%TO.P,J1,37,Pin_37*%
%TO.N,PA27*%
X128270000Y-85090000D03*
%TO.P,J1,38,Pin_38*%
%TO.N,PB_12*%
X125730000Y-85090000D03*
%TD*%
D10*
%TO.P,J3_J1,1,1*%
%TO.N,3V3*%
X119380000Y-119380000D03*
D11*
%TO.P,J3_J1,2,2*%
%TO.N,+5V*%
X116840000Y-119380000D03*
%TO.P,J3_J1,3,3*%
%TO.N,PA25*%
X119380000Y-116840000D03*
%TO.P,J3_J1,4,4*%
%TO.N,GND*%
X116840000Y-116840000D03*
%TO.P,J3_J1,5,5*%
%TO.N,PA9*%
X119380000Y-114300000D03*
%TO.P,J3_J1,6,6*%
%TO.N,PB19*%
X116840000Y-114300000D03*
%TO.P,J3_J1,7,7*%
%TO.N,PA8*%
X119380000Y-111760000D03*
%TO.P,J3_J1,8,8*%
%TO.N,PA22*%
X116840000Y-111760000D03*
%TO.P,J3_J1,9,9*%
%TO.N,PA26*%
X119380000Y-109220000D03*
%TO.P,J3_J1,10,10*%
%TO.N,PB18*%
X116840000Y-109220000D03*
%TO.P,J3_J1,11,11*%
%TO.N,PA_0*%
X119380000Y-106680000D03*
%TO.P,J3_J1,12,12*%
%TO.N,PA18*%
X116840000Y-106680000D03*
%TO.P,J3_J1,13,13*%
%TO.N,PB9*%
X119380000Y-104140000D03*
%TO.P,J3_J1,14,14*%
%TO.N,PA24*%
X116840000Y-104140000D03*
%TO.P,J3_J1,15,15*%
%TO.N,PA27*%
X119380000Y-101600000D03*
%TO.P,J3_J1,16,16*%
%TO.N,PA17*%
X116840000Y-101600000D03*
%TO.P,J3_J1,17,17*%
%TO.N,PA_9*%
X119380000Y-99060000D03*
%TO.P,J3_J1,18,18*%
%TO.N,PA16*%
X116840000Y-99060000D03*
%TO.P,J3_J1,19,19*%
%TO.N,PB3*%
X119380000Y-96520000D03*
%TO.P,J3_J1,20,20*%
%TO.N,PA15*%
X116840000Y-96520000D03*
%TD*%
D10*
%TO.P,J2_J4,1,1*%
%TO.N,PB4*%
X76200000Y-119380000D03*
D11*
%TO.P,J2_J4,2,2*%
%TO.N,GND*%
X73660000Y-119380000D03*
%TO.P,J2_J4,3,3*%
%TO.N,PA_8*%
X76200000Y-116840000D03*
%TO.P,J2_J4,4,4*%
%TO.N,PB12*%
X73660000Y-116840000D03*
%TO.P,J2_J4,5,5*%
%TO.N,PA28*%
X76200000Y-114300000D03*
%TO.P,J2_J4,6,6*%
%TO.N,PB17*%
X73660000Y-114300000D03*
%TO.P,J2_J4,7,7*%
%TO.N,PA31*%
X76200000Y-111760000D03*
%TO.P,J2_J4,8,8*%
%TO.N,PB15*%
X73660000Y-111760000D03*
%TO.P,J2_J4,9,9*%
%TO.N,PB20*%
X76200000Y-109220000D03*
%TO.P,J2_J4,10,10*%
%TO.N,unconnected-(J2_J4-Pad10)*%
X73660000Y-109220000D03*
%TO.P,J2_J4,11,11*%
%TO.N,PB13*%
X76200000Y-106680000D03*
%TO.P,J2_J4,12,12*%
%TO.N,PB8*%
X73660000Y-106680000D03*
%TO.P,J2_J4,13,13*%
%TO.N,PA10*%
X76200000Y-104140000D03*
%TO.P,J2_J4,14,14*%
%TO.N,PB7*%
X73660000Y-104140000D03*
%TO.P,J2_J4,15,15*%
%TO.N,PA11*%
X76200000Y-101600000D03*
%TO.P,J2_J4,16,16*%
%TO.N,PB6*%
X73660000Y-101600000D03*
%TO.P,J2_J4,17,17*%
%TO.N,PA12*%
X76200000Y-99060000D03*
%TO.P,J2_J4,18,18*%
%TO.N,PA_2*%
X73660000Y-99060000D03*
%TO.P,J2_J4,19,19*%
%TO.N,PA13*%
X76200000Y-96520000D03*
%TO.P,J2_J4,20,20*%
%TO.N,PB16*%
X73660000Y-96520000D03*
%TD*%
D12*
%TO.N,PA_8*%
X69850000Y-106680000D03*
%TO.N,PB13*%
X107460000Y-114690000D03*
X81160000Y-113590000D03*
%TO.N,PA13*%
X73960000Y-94290000D03*
%TO.N,PB12*%
X77360000Y-121790000D03*
X79560000Y-128790000D03*
%TO.N,PA12*%
X122870000Y-88780000D03*
X81270000Y-88780000D03*
%TD*%
D13*
%TO.N,PA_0*%
X123190000Y-99060000D02*
X124460000Y-97790000D01*
X119380000Y-106680000D02*
X123190000Y-102870000D01*
X124460000Y-97790000D02*
X125730000Y-97790000D01*
X123190000Y-99695000D02*
X123190000Y-99060000D01*
X123190000Y-102870000D02*
X123190000Y-99695000D01*
D14*
%TO.N,+5V*%
X120650000Y-125730000D02*
X125730000Y-125730000D01*
X116840000Y-119380000D02*
X116840000Y-121920000D01*
X116840000Y-121920000D02*
X120650000Y-125730000D01*
%TO.N,3V3*%
X119380000Y-119380000D02*
X121285000Y-119380000D01*
X123190000Y-117475000D02*
X123190000Y-114300000D01*
X124460000Y-113030000D02*
X125730000Y-113030000D01*
X123190000Y-114300000D02*
X124460000Y-113030000D01*
X121285000Y-119380000D02*
X123190000Y-117475000D01*
D13*
%TO.N,PA_8*%
X74930000Y-115570000D02*
X76200000Y-116840000D01*
X71120000Y-110490000D02*
X74016346Y-110490000D01*
X74930000Y-111403654D02*
X74930000Y-115570000D01*
X69850000Y-106680000D02*
X69850000Y-109220000D01*
X74016346Y-110490000D02*
X74930000Y-111403654D01*
X69850000Y-109220000D02*
X71120000Y-110490000D01*
%TO.N,PA_9*%
X114935000Y-100330000D02*
X118110000Y-100330000D01*
X118110000Y-100330000D02*
X119380000Y-99060000D01*
X67310000Y-105410000D02*
X109855000Y-105410000D01*
X109855000Y-105410000D02*
X114935000Y-100330000D01*
%TO.N,PA_2*%
X62230000Y-87630000D02*
X64770000Y-90170000D01*
X74930000Y-97790000D02*
X74930000Y-87630000D01*
X62230000Y-83185000D02*
X62230000Y-87630000D01*
X63500000Y-81915000D02*
X62230000Y-83185000D01*
X73660000Y-99060000D02*
X74930000Y-97790000D01*
X69215000Y-81915000D02*
X63500000Y-81915000D01*
X74930000Y-87630000D02*
X69215000Y-81915000D01*
%TO.N,PB15*%
X64770000Y-110490000D02*
X66040000Y-111760000D01*
X66040000Y-111760000D02*
X73660000Y-111760000D01*
%TO.N,PB13*%
X125730000Y-128270000D02*
X121040000Y-128270000D01*
X121040000Y-128270000D02*
X107460000Y-114690000D01*
X81160000Y-113590000D02*
X81160000Y-111640000D01*
X81160000Y-111640000D02*
X76200000Y-106680000D01*
%TO.N,PA13*%
X73960000Y-94280000D02*
X67310000Y-87630000D01*
X73960000Y-94290000D02*
X73960000Y-94280000D01*
%TO.N,PB16*%
X73660000Y-96520000D02*
X68580000Y-101600000D01*
X68580000Y-101600000D02*
X66040000Y-101600000D01*
X66040000Y-101600000D02*
X64770000Y-102870000D01*
%TO.N,PA28*%
X78105000Y-114300000D02*
X78740000Y-114935000D01*
X78740000Y-114935000D02*
X78740000Y-121285000D01*
X78740000Y-121285000D02*
X77470000Y-122555000D01*
X76200000Y-114300000D02*
X78105000Y-114300000D01*
X70485000Y-120015000D02*
X70485000Y-118745000D01*
X70485000Y-118745000D02*
X67310000Y-115570000D01*
X73025000Y-122555000D02*
X70485000Y-120015000D01*
X77470000Y-122555000D02*
X73025000Y-122555000D01*
%TO.N,PB12*%
X73660000Y-116840000D02*
X71360000Y-119140000D01*
X129420000Y-131960000D02*
X130160000Y-131220000D01*
X73260000Y-121790000D02*
X77360000Y-121790000D01*
X130160000Y-131220000D02*
X130160000Y-122540000D01*
X71360000Y-119140000D02*
X71360000Y-119890000D01*
X130160000Y-122540000D02*
X128270000Y-120650000D01*
X71360000Y-119890000D02*
X73260000Y-121790000D01*
X82730000Y-131960000D02*
X129420000Y-131960000D01*
X79560000Y-128790000D02*
X82730000Y-131960000D01*
%TO.N,PA12*%
X122860000Y-88790000D02*
X122870000Y-88780000D01*
X128270000Y-87630000D02*
X127120000Y-88780000D01*
X77370000Y-97890000D02*
X76200000Y-99060000D01*
X77660000Y-92390000D02*
X77660000Y-97600000D01*
X81270000Y-88780000D02*
X77660000Y-92390000D01*
X127120000Y-88780000D02*
X122870000Y-88780000D01*
X77660000Y-97600000D02*
X77370000Y-97890000D01*
%TO.N,PB9*%
X65920000Y-120886346D02*
X67023654Y-121990000D01*
X64770000Y-113030000D02*
X65920000Y-114180000D01*
X72795000Y-124225000D02*
X95128654Y-124225000D01*
X67023654Y-121990000D02*
X70560000Y-121990000D01*
X65920000Y-114180000D02*
X65920000Y-120886346D01*
X70560000Y-121990000D02*
X72795000Y-124225000D01*
X95128654Y-124225000D02*
X116363654Y-102990000D01*
X118230000Y-102990000D02*
X119380000Y-104140000D01*
X116363654Y-102990000D02*
X118230000Y-102990000D01*
%TO.N,PA25*%
X118160000Y-118060000D02*
X119380000Y-116840000D01*
X119190000Y-121490000D02*
X118160000Y-120460000D01*
X118160000Y-120460000D02*
X118160000Y-118060000D01*
X121100000Y-120650000D02*
X120260000Y-121490000D01*
X125730000Y-120650000D02*
X121100000Y-120650000D01*
X120260000Y-121490000D02*
X119190000Y-121490000D01*
%TO.N,PA24*%
X66130000Y-127090000D02*
X93890000Y-127090000D01*
X64770000Y-125730000D02*
X66130000Y-127090000D01*
X93890000Y-127090000D02*
X116840000Y-104140000D01*
%TO.N,PA26*%
X124206000Y-102362000D02*
X124968000Y-101600000D01*
X127000000Y-100965000D02*
X127000000Y-96520000D01*
X124968000Y-101600000D02*
X126365000Y-101600000D01*
X126365000Y-101600000D02*
X127000000Y-100965000D01*
X127000000Y-96520000D02*
X125730000Y-95250000D01*
X124206000Y-104394000D02*
X124206000Y-102362000D01*
X119380000Y-109220000D02*
X124206000Y-104394000D01*
%TO.N,PA27*%
X128270000Y-83820000D02*
X127000000Y-82550000D01*
X128270000Y-85090000D02*
X128270000Y-83820000D01*
X121920000Y-84455000D02*
X121920000Y-99695000D01*
X123825000Y-82550000D02*
X121920000Y-84455000D01*
X121920000Y-99695000D02*
X120015000Y-101600000D01*
X120015000Y-101600000D02*
X119380000Y-101600000D01*
X127000000Y-82550000D02*
X123825000Y-82550000D01*
%TO.N,PA8*%
X128270000Y-110490000D02*
X127000000Y-111760000D01*
X127000000Y-111760000D02*
X119380000Y-111760000D01*
%TD*%
M02*
